<?xml version="1.0" encoding="utf-8"?>
<!-- Generator: Adobe Illustrator 15.0.2, SVG Export Plug-In . SVG Version: 6.00 Build 0)  -->
<!DOCTYPE svg PUBLIC "-//W3C//DTD SVG 1.1//EN" "http://www.w3.org/Graphics/SVG/1.1/DTD/svg11.dtd">
<svg version="1.1" xmlns="http://www.w3.org/2000/svg" xmlns:xlink="http://www.w3.org/1999/xlink" x="0px" y="0px"
	 width="1033.357px" height="276.432px" viewBox="0 0 1033.357 276.432" enable-background="new 0 0 1033.357 276.432"
	 xml:space="preserve">
<g id="Layer_2" display="none">
	<rect x="-118.199" y="-67.684" display="inline" fill="#231F20" width="1652.918" height="424.479"/>
	<rect x="1024.744" y="623.782" display="inline" fill="#231F20" width="1652.919" height="424.479"/>
</g>
<g id="blacklight">
	<g>
		<g>
			<path fill="#FFFFFF" d="M724.375,67.203c-36.093,0-65.456,29.363-65.456,65.457c0,22.253,11.125,41.795,28.053,53.675v21.131
				c0,5.144,4.209,9.354,9.351,9.354h56.104c5.141,0,9.35-4.21,9.35-9.354v-21.132c16.931-11.88,28.055-31.422,28.055-53.675
				C789.831,96.565,760.462,67.203,724.375,67.203z M751.021,170.993l-7.943,5.617v21.504h-9.303v-29.117h-18.668l0.002,29.117
				h-9.438V176.61l-7.947-5.617c-12.625-8.787-20.104-23.095-20.104-38.334c0-25.809,20.946-46.755,46.755-46.755
				c25.807,0,46.754,20.946,46.754,46.755C771.129,147.898,763.651,162.206,751.021,170.993z"/>
			<path fill="#FFFFFF" d="M696.322,244.867c0,5.142,4.211,9.353,9.35,9.353h37.405c5.141,0,9.35-4.211,9.35-9.353v-9.349h-56.104
				V244.867z"/>
		</g>
	</g>
	<g>
		<g>
			<path fill="#FFFFFF" d="M724.497,102.505c-15.934,0-28.801,12.865-28.801,28.804c0,15.936,12.867,28.807,28.801,28.807
				c15.938,0,28.805-12.871,28.805-28.807C753.302,115.37,740.437,102.505,724.497,102.505z"/>
		</g>
	</g>
	<path fill="#FFFFFF" d="M52.996,24.124v59.401c5.426-5.426,11.292-9.496,17.6-12.21c6.306-2.712,13.053-4.07,20.241-4.07
		c15.62,0,28.893,5.904,39.82,17.71c10.926,11.809,16.391,26.95,16.391,45.431c0,17.82-5.648,32.727-16.94,44.717
		c-11.294,11.989-24.678,17.984-40.151,17.984c-6.894,0-13.31-1.229-19.25-3.686c-5.94-2.456-11.844-6.471-17.71-12.045v12.649
		H23.186V24.124H52.996z M84.566,94.965c-9.46,0-17.308,3.229-23.54,9.681c-6.234,6.454-9.35,14.888-9.35,25.301
		c0,10.634,3.116,19.231,9.35,25.795c6.232,6.564,14.08,9.846,23.54,9.846c9.167,0,16.885-3.337,23.156-10.011
		c6.27-6.672,9.405-15.18,9.405-25.521c0-10.267-3.08-18.683-9.24-25.245C101.727,98.248,93.952,94.965,84.566,94.965z"/>
	<path fill="#FFFFFF" d="M151.711,24.124h30.03v165.883h-30.03V24.124z"/>
	<path fill="#FFFFFF" d="M282.457,70.325h30.03v119.682h-30.03v-12.649c-5.861,5.574-11.739,9.589-17.635,12.045
		c-5.897,2.457-12.288,3.686-19.173,3.686c-15.455,0-28.824-5.995-40.104-17.984c-11.28-11.99-16.919-26.896-16.919-44.717
		c0-18.479,5.457-33.622,16.372-45.431c10.914-11.806,24.171-17.71,39.774-17.71c7.178,0,13.916,1.358,20.215,4.07
		c6.299,2.714,12.123,6.784,17.471,12.21L282.457,70.325L282.457,70.325z M250.889,94.965c-9.283,0-16.994,3.283-23.133,9.846
		c-6.14,6.562-9.209,14.979-9.209,25.245c0,10.341,3.123,18.849,9.373,25.521c6.25,6.674,13.941,10.011,23.078,10.011
		c9.429,0,17.25-3.28,23.461-9.846c6.211-6.562,9.319-15.161,9.319-25.795c0-10.413-3.107-18.847-9.319-25.301
		C268.247,98.193,260.39,94.965,250.889,94.965z"/>
	<path fill="#FFFFFF" d="M443.103,94.525l-25,13.75c-4.699-4.912-9.342-8.322-13.933-10.23c-4.589-1.904-9.967-2.858-16.134-2.858
		c-11.234,0-20.321,3.35-27.258,10.05c-6.938,6.699-10.407,15.285-10.407,25.754c0,10.179,3.34,18.49,10.022,24.933
		c6.681,6.443,15.455,9.665,26.321,9.665c13.438,0,23.899-4.583,31.389-13.751l23.68,16.214
		c-12.834,16.692-30.948,25.037-54.341,25.037c-21.048,0-37.53-6.231-49.446-18.699c-11.918-12.468-17.875-27.062-17.875-43.781
		c0-11.586,2.896-22.256,8.69-32.01c5.792-9.754,13.877-17.417,24.255-22.991c10.376-5.572,21.981-8.36,34.815-8.36
		c11.88,0,22.55,2.365,32.01,7.095C429.353,79.07,437.09,85.799,443.103,94.525z"/>
	<path fill="#FFFFFF" d="M449.856,24.124h30.029v95.544l44.221-49.343h37.713l-51.555,57.361l57.721,62.32h-37.278l-50.821-55.158
		v55.158h-30.029V24.124L449.856,24.124z"/>
	<path fill="#FFFFFF" d="M569.754,24.124h30.03v165.883h-30.03V24.124z"/>
	<path fill="#FFFFFF" d="M630.517,21.044c5.265,0,9.779,1.908,13.545,5.721c3.766,3.813,5.649,8.434,5.649,13.859
		c0,5.354-1.864,9.919-5.595,13.695c-3.729,3.778-8.189,5.665-13.381,5.665c-5.338,0-9.893-1.925-13.657-5.775
		c-3.765-3.85-5.647-8.524-5.647-14.024c0-5.28,1.862-9.791,5.592-13.53C620.753,22.914,625.249,21.044,630.517,21.044z
		 M615.5,70.325h30.03v119.682H615.5V70.325z"/>
	<g>
		<g>
			<path fill="#FFFFFF" d="M801.72,24.124h29.811v58.301c5.865-5.06,11.771-8.854,17.71-11.385c5.94-2.53,11.952-3.795,18.041-3.795
				c11.88,0,21.89,4.108,30.03,12.32c6.965,7.113,10.449,17.563,10.449,31.351v79.091H878.17v-52.471
				c0-13.86-0.659-23.247-1.979-28.16c-1.319-4.913-3.574-8.581-6.766-11.001c-3.189-2.42-7.133-3.63-11.824-3.63
				c-6.088,0-11.312,2.019-15.676,6.05c-4.363,4.034-7.39,9.534-9.074,16.501c-0.881,3.595-1.32,11.809-1.32,24.642v48.069H801.72
				V24.124L801.72,24.124z"/>
			<path fill="#FFFFFF" d="M937.052,26.214h30.03v44.11h17.819v25.851h-17.819v93.831h-30.03V96.175h-15.4V70.324h15.4V26.214
				L937.052,26.214z"/>
		</g>
	</g>
</g>
</svg>
